<?xml version="1.0" encoding="UTF-8"?>
<svg id="Layer_2" data-name="Layer 2" xmlns="http://www.w3.org/2000/svg" xmlns:xlink="http://www.w3.org/1999/xlink" viewBox="0 0 301.56 301.56">
  <defs>
    <style>
      .cls-1 {
        fill: url(#linear-gradient);
      }

      .cls-2 {
        fill: #fffdfd;
      }
    </style>
    <linearGradient id="linear-gradient" x1="6.12" y1="40.76" x2="295.44" y2="260.81" gradientUnits="userSpaceOnUse">
      <stop offset="0" stop-color="#32798d"/>
      <stop offset=".13" stop-color="#236179"/>
      <stop offset=".31" stop-color="#144b67"/>
      <stop offset=".5" stop-color="#0a3b5a"/>
      <stop offset=".71" stop-color="#033152"/>
      <stop offset="1" stop-color="#022f50"/>
    </linearGradient>
  </defs>
  <g id="Layer_1-2" data-name="Layer 1">
    <g>
      <rect class="cls-1" width="301.56" height="301.56" rx="73.63" ry="73.63"/>
      <path class="cls-2" d="M53.23,174.51v.19c.05,.73,.11,1.47,.19,2.22l.13,1.12c.06,.48,.13,.95,.21,1.42,.05,.33,.11,.65,.19,1.03l.48,2.3c.22,.91,.43,1.72,.62,2.33l.08,.23c.34,1.13,.74,2.29,1.22,3.52,.06,.16,.13,.31,.21,.49l.16,.38c.44,1.07,.86,2.01,1.31,2.93l.05,.12c.06,.13,.14,.27,.23,.45,.08,.15,.16,.3,.23,.44l.29,.57c.18,.36,.37,.71,.56,1.06,.57,1.02,1.13,1.93,1.7,2.8l.32,.49c.33,.5,.71,1.04,1.19,1.68,.07,.1,.16,.21,.26,.34l.28,.37c.19,.25,.38,.51,.59,.77,.72,.91,1.37,1.69,2,2.39,2.27,2.55,4.83,4.86,7.61,6.88,1.94,1.42,4.02,2.7,6.24,3.84l1.9,.9c.39,.18,.76,.34,1.12,.49,.36,.15,.73,.29,1.11,.44l.15,.06c.65,.25,1.31,.49,1.99,.71l.24,.08c.34,.11,.68,.23,1.03,.33,.94,.28,1.9,.54,2.85,.75,.29,.06,.57,.12,.86,.18l.15,.03c.94,.19,1.83,.34,2.71,.47,.29,.04,.59,.07,1.02,.12l.19,.02c.8,.09,1.65,.16,2.52,.2l.4,.02c.22,.01,.44,.03,.66,.03,1.39,.03,2.56,.03,3.66-.03,4.87-.27,9.78-1.36,14.6-3.23,7.56-2.93,14.83-7.79,21.61-14.46,5.2-5.11,10.17-11.34,14.77-18.51l.46-.71c.23-.35,.45-.69,.67-1.04,.3-.48,.59-.97,.87-1.46l.45-.75c2.97-4.98,5.69-10.22,8.09-15.57l1.01-2.26,2.16,1.2c1.28,.71,2.61,1.48,4.06,2.36,.55,.34,1.09,.68,1.61,1.02l1.08,.69c.49,.31,.97,.62,1.45,.94,.72,.48,1.41,.97,2.11,1.46l.71,.5c.36,.25,.72,.5,1.06,.75,.82,.6,1.61,1.2,2.4,1.8l1.23,.95c.82,.65,1.63,1.3,2.43,1.97l.96,.8c.84,.71,1.66,1.42,2.47,2.14l.6,.53c.94,.84,1.81,1.63,2.66,2.43l.25,.23c3.77,3.54,7.23,7.08,10.66,10.59,1.28,1.31,2.55,2.61,3.8,3.87l2.58,2.57,4.02,3.82c.71,.65,1.43,1.28,2.17,1.91l.49,.44c.31,.28,.61,.53,.97,.83l.27,.23c4.64,3.84,9.22,6.73,14.04,8.85,1.48,.69,2.98,1.29,4.5,1.8,3.03,1.05,6.45,1.88,10.16,2.46,.94,.15,1.88,.28,2.81,.39-11.67-10.04-17.64-21.71-20.65-30.14-5.45-15.24-8.82-35.17-11.8-52.75-2.65-15.65-5.15-30.43-8.65-39.44-4.37-11.31-12.68-16.85-21.67-14.46-3.56,.96-7.32,3.49-11.27,7.6-.44,.46-.9,.94-1.36,1.45l-.15,.18c-3.92,4.52-7.37,10.35-10.26,17.28-.06,.16-.12,.28-.18,.41l-.09,.19c-.03,.06-.06,.14-.12,.31-.05,.13-.11,.26-.15,.36-1.71,3.86-3.39,8.31-5.17,13.02-1.91,5.07-3.89,10.32-6.3,15.95l-.97,2.26-2.18-1.14c-3.95-2.07-8-3.94-12.01-5.54l-.39-.15c-1.34-.53-2.68-1.03-3.98-1.49l-.54-.19c-1.5-.52-2.88-.96-4.34-1.4-2.94-.86-5.89-1.58-8.78-2.12l-.85-.15c-1.15-.2-2.28-.37-3.36-.51-.35-.05-.7-.09-1.05-.13l-.32-.04c-.91-.1-1.78-.17-2.68-.24l-1.38-.1c-.64-.03-1.28-.05-1.93-.06-.35,0-.69-.01-1.05-.01h-1.19s-2.85,.1-2.85,.1c-.43,.02-.86,.04-1.25,.07l-1.65,.17c-.72,.08-1.43,.15-2.12,.25l-.33,.05c-.3,.04-.6,.1-1.02,.17l-.37,.07c-.86,.15-1.71,.32-2.56,.51-.52,.12-1.03,.24-1.54,.37-.15,.04-.31,.07-.45,.11-.13,.03-.26,.06-.39,.09-.2,.05-.4,.12-.66,.21l-.93,.29c-.59,.18-1.18,.36-1.77,.56-.41,.14-.81,.29-1.27,.47l-.6,.23c-.37,.14-.75,.28-1.12,.43l-1.02,.43c-.23,.1-.47,.21-.71,.33l-.39,.18c-.53,.24-1.05,.5-1.58,.76l-.54,.27c-.24,.11-.47,.23-.72,.35l-.63,.36c-.49,.27-.97,.56-1.46,.85l-.94,.55c-.28,.16-.55,.31-.83,.49-.9,.57-1.81,1.19-2.73,1.86-.12,.09-.23,.17-.4,.31l-1.2,.92c-.3,.23-.6,.47-.89,.7-.17,.14-.33,.28-.51,.43l-.29,.25c-.52,.44-1.03,.89-1.52,1.34l-.74,.72c-.47,.46-.93,.92-1.34,1.35l-.86,.95c-.37,.41-.73,.83-1.1,1.28l-.79,.99c-.18,.22-.35,.44-.49,.63l-.94,1.34c-.35,.51-.68,1.02-1.03,1.59l-.44,.73c-.31,.52-.6,1.05-.9,1.63l-.37,.7c-.11,.22-.23,.44-.31,.62l-.7,1.55c-.17,.4-.33,.8-.48,1.18l-.46,1.24c-.27,.76-.52,1.55-.77,2.44l-.19,.72c-.24,.93-.45,1.92-.64,3.02l-.13,.77c-.17,1.09-.28,2.09-.36,3.06v.16c-.03,.23-.04,.46-.05,.71l-.04,.85c0,.15-.02,.31-.02,.4v2.07c0,.16,0,.31,.01,.48l.03,.41v.25Zm114.82-21.36l.55-1.58c.35-1.01,.67-1.98,.98-2.95,.21-.65,.42-1.31,.61-1.94,.8-2.64,1.67-5.27,2.57-7.81,1.32-3.71,2.72-7.17,4.13-10.3,.45-.99,.89-1.92,1.32-2.81l.12-.25c.41-.84,.83-1.63,1.22-2.37l.23-.44c.38-.7,.76-1.36,1.14-1.99l.2-.35c.1-.18,.21-.37,.31-.53,1.92-3.1,3.75-5.38,5.46-6.76,2.47-2,4.42-1.89,5.61-1.46,2.18,.79,3.63,3.18,4.45,7.35l.16,.88c.03,.15,.05,.3,.07,.4,1.69,10.03,2.8,21.89,3.87,33.36l.41,4.34c.12,1.28,.25,2.51,.38,3.74l.07,.69c.77,7.41,1.51,12.79,2.41,17.45l1.49,7.72-5.38-5.73c-.82-.87-1.65-1.74-2.48-2.61l-.37-.38c-.44-.46-.88-.92-1.36-1.39-.26-.26-.52-.53-.79-.79l-2.4-2.36c-1.41-1.37-2.93-2.82-4.53-4.29l-1.18-1.09c-1.89-1.72-3.62-3.26-5.28-4.69l-.8-.67c-1.51-1.28-3.11-2.6-4.76-3.93-.52-.42-1.04-.83-1.56-1.24-2.09-1.65-3.84-2.99-5.52-4.22l-1.35-1Zm-104.42,21.75c.09-.86,.22-1.75,.4-2.65l.05-.23c.14-.66,.31-1.32,.49-1.98,.1-.37,.21-.74,.32-1.1,.17-.54,.36-1.08,.56-1.61,.15-.39,.31-.78,.47-1.15,.21-.49,.44-.98,.68-1.46,.23-.45,.45-.85,.67-1.24,.19-.35,.4-.69,.6-1.02l.29-.47c.25-.39,.51-.76,.79-1.15,.16-.22,.32-.43,.47-.63,.23-.31,.41-.54,.59-.77,.3-.37,.62-.73,.96-1.11l.3-.33c.33-.36,.61-.65,.9-.94,.38-.38,.78-.74,1.18-1.1,.46-.41,.87-.77,1.3-1.1,.43-.34,.88-.67,1.33-1,.48-.35,.97-.69,1.47-1.01,.18-.12,.37-.23,.53-.32l.3-.17c.38-.23,.77-.45,1.15-.66l.32-.18c.27-.15,.55-.31,.83-.45,.31-.16,.63-.3,.94-.44l.33-.15c.73-.33,1.44-.65,2.2-.94,.4-.16,.82-.3,1.32-.46l.5-.16c.76-.25,1.54-.5,2.32-.71,.4-.11,.81-.21,1.21-.3l.97-.22c.78-.17,1.57-.33,2.39-.47,.31-.05,.61-.1,.9-.14l.21-.03c.39-.06,.78-.11,1.19-.16,.88-.11,1.78-.2,2.73-.28l.88-.06c.49-.03,.95-.07,1.42-.09,.94-.04,1.95-.06,3.19-.05h.69c.51,0,1.01,0,1.53,.02,1.31,.04,2.69,.14,3.86,.23l.7,.05c.41,.03,.83,.05,1.25,.1,2.17,.22,4.21,.49,6.22,.83,1.75,.29,3.6,.63,5.8,1.06,.61,.12,1.21,.24,1.92,.39l.45,.09c1.21,.25,2.41,.51,3.59,.77l1.85,.43c1.6,.38,3.18,.77,4.68,1.18l.42,.11c1.69,.46,3.36,.94,4.96,1.42l2.68,.81-1.34,2.46c-4.85,8.88-10.27,16.82-16.55,24.27l-.79,1.08h-.12c-2.46,2.86-5.18,5.73-8.08,8.56-.39,.38-.76,.73-1.04,.98-.45,.46-.85,.84-1.28,1.24-1.3,1.16-2.67,2.3-4.34,3.58-1.02,.77-2.1,1.53-3.3,2.32l-.48,.31c-1.1,.71-2.17,1.34-3.13,1.85l-.2,.11c-1.07,.57-2.16,1.1-3.23,1.57l-.18,.08c-1.11,.47-2.19,.88-3.22,1.22-1.21,.39-2.46,.72-3.73,.96l-.17,.04c-1.15,.22-2.34,.36-3.56,.43h-.33c-.34,.03-.69,.03-1.03,.03-.69,0-1.37-.03-2.06-.08l-.34-.03c-1.11-.11-2.17-.29-3.15-.53-1.7-.4-3.37-1.02-4.92-1.81l-.31-.15c-.74-.39-1.41-.82-1.81-1.08l-.22-.14c-.11-.07-.21-.13-.31-.2-.47-.33-.9-.67-1.4-1.08l-.23-.18c-.19-.15-.37-.3-.52-.43-.27-.24-.52-.49-.77-.73l-.56-.56c-.2-.2-.39-.39-.59-.6-.18-.2-.29-.34-.41-.48l-.16-.2c-.37-.44-.73-.88-1.1-1.38l-.2-.29c-.49-.69-.91-1.33-1.29-1.99-.87-1.5-1.61-3.11-2.21-4.77-.9-2.54-1.46-5.19-1.66-7.87-.14-1.83-.11-3.67,.07-5.47Z"/>
    </g>
  </g>
</svg>